<?xml version="1.0" encoding="UTF-8"?>
<svg xmlns="http://www.w3.org/2000/svg" width="32" height="32" viewBox="0 0 32 32">
  <path fill="#A2C444" fill-rule="evenodd" d="M 5.197 12.362 L 4.021 13.391 L 3.102 14.604 L 2.441 15.963 L 2.073 17.360 L 2.000 18.976 L 2.220 20.262 L 2.845 21.806 L 3.580 22.908 L 4.572 23.937 L 5.528 24.635 L 6.630 25.186 L 7.769 25.517 L 9.239 25.664 L 11.591 25.591 L 13.318 25.333 L 14.751 24.819 L 14.751 21.843 L 12.987 22.357 L 10.966 22.614 L 9.202 22.651 L 7.769 22.394 L 7.806 22.026 L 9.533 21.769 L 11.444 20.997 L 12.436 20.299 L 13.281 19.417 L 14.089 18.094 L 14.567 16.698 L 14.824 14.383 L 14.787 13.869 L 14.604 13.428 L 13.575 12.546 L 12.105 11.701 L 11.003 11.333 L 9.790 11.113 L 8.504 11.113 L 7.328 11.333 L 6.336 11.701 Z M 11.811 15.045 L 11.811 15.853 L 11.297 17.066 L 10.378 18.131 L 9.459 18.719 L 8.173 19.087 L 7.144 19.087 L 6.005 18.793 L 5.491 18.535 L 5.160 18.168 L 5.197 17.323 L 5.895 15.853 L 6.556 15.155 L 7.622 14.530 L 8.945 14.163 L 9.937 14.163 L 11.039 14.493 L 11.480 14.714 Z M 16.514 5.858 L 16.625 6.887 L 16.625 23.018 L 16.919 23.937 L 17.617 24.672 L 18.756 25.333 L 20.152 25.848 L 21.291 26.068 L 24.157 26.068 L 25.370 25.811 L 26.730 25.260 L 27.832 24.488 L 28.640 23.606 L 29.375 22.320 L 29.816 20.924 L 30.000 19.417 L 29.927 17.470 L 29.669 16.220 L 29.118 14.861 L 28.457 13.869 L 27.648 13.060 L 26.913 12.546 L 25.517 11.958 L 24.084 11.701 L 22.798 11.701 L 21.843 11.848 L 20.630 12.289 L 20.336 12.289 L 20.262 7.585 L 20.005 6.409 Z M 22.430 14.567 L 23.827 14.677 L 24.672 15.045 L 25.517 15.816 L 25.958 16.625 L 26.289 18.315 L 26.215 20.115 L 25.958 21.108 L 25.627 21.769 L 24.966 22.504 L 24.488 22.835 L 23.129 23.239 L 21.732 23.165 L 20.262 22.577 L 20.262 15.412 L 21.438 14.787 Z"/>
</svg>
